# xmcd
#
# Track frame offsets: 
#        150
#        12245
#        24751
#        38551
#        56299
#        67902
#        83558
#        95071
#        108232
#        120548
#        135451
#
# Disc length: 2024 seconds
#
# Revision: 0
# Processed by: cddbd v1.5.2PL0 Copyright (c) Steve Scherf et al.
# Submitted via: ExactAudioCopy v1.3
#
DISCID=7607e60b
DTITLE=Danny Brown - uknowhatimsayin¿
DYEAR=2019
DGENRE=Hip-Hop
TTITLE0=Change Up
TTITLE1=Theme Song
TTITLE2=Dirty Laundry
TTITLE3=3 Tearz (feat. Run The Jewels)
TTITLE4=Belly of The Beast (feat. Obongjayar)
TTITLE5=Savage Nomad
TTITLE6=Best Life
TTITLE7=uknowhatimsayin¿ (feat. Obongjayar)
TTITLE8=Negro Spiritual (feat. JPEGMAFIA)
TTITLE9=Shine (feat. Blood Orange)
TTITLE10=Combat
EXTD=
EXTT0=
EXTT1=
EXTT2=
EXTT3=
EXTT4=
EXTT5=
EXTT6=
EXTT7=
EXTT8=
EXTT9=
EXTT10=
PLAYORDER=
